# xmcd CD database file
#
# Track frame offsets:
#	150
#	13139
#	26481
#	45295
#	59094
#	70761
#	88771
#	101582
#	117014
#	132428
#	153769
#	167001
#
# Disc length: 2411 seconds
#
# Revision: 0
# Processed by: cddbd v1.5.1PL2 Copyright (c) Steve Scherf et al.
# Submitted via: CDex 1.51
#
DISCID=9509690c
DTITLE=Clementine' - Lumiere
DYEAR=2006
DGENRE=Jazz
TTITLE0=Kokomo
TTITLE1=Moon River
TTITLE2=Time After Time
TTITLE3=Melody Fair
TTITLE4=Laura
TTITLE5=Swingueira
TTITLE6=Song of The Vagabonds
TTITLE7=Un Amor Que Ya Paso
TTITLE8=Little Green Bag
TTITLE9=Two of Us
TTITLE10=Hymne A L'amour
TTITLE11=Le Marin Des Vents
EXTD=YEAR: 2006
EXTT0=
EXTT1=
EXTT2=
EXTT3=
EXTT4=
EXTT5=
EXTT6=
EXTT7=
EXTT8=
EXTT9=
EXTT10=
EXTT11=
PLAYORDER=
